<?xml version="1.0" standalone="no"?>
<!DOCTYPE svg PUBLIC "-//W3C//DTD SVG 1.1//EN" "http://www.w3.org/Graphics/SVG/1.1/DTD/svg11.dtd" >
<svg xmlns="http://www.w3.org/2000/svg">
<metadata>
<json>
<![CDATA[
{
	"fontFamily": "icomoon",
	"majorVersion": 1,
	"minorVersion": 0,
	"version": "Version 1.0",
	"fontId": "icomoon",
	"psName": "icomoon",
	"subFamily": "Regular",
	"fullName": "icomoon",
	"description": "Font generated by IcoMoon."
}
]]>
</json>
</metadata>
<defs>
<font id="icomoon" horiz-adv-x="1024">
<font-face units-per-em="1024" ascent="960" descent="-64" />
<missing-glyph horiz-adv-x="1024" />
<glyph unicode="&#x20;" horiz-adv-x="512" d="" />
<glyph unicode="&#xe900;" glyph-name="nav_art" data-tags="nav_art" d="M896 370.774h-50.389v394.197h-236.715v88.363h-151.125v-88.363h-236.715v-394.24h-50.389v-150.016h86.016l-50.389-220.715h143.872l50.389 220.757h61.312v-220.757h142.72v220.757h61.312l50.475-220.757h144l-50.389 220.757h86.016v150.016zM508.032 803.328h50.389v-38.4h-50.389zM795.136 714.966v-47.189h-169.003c-0.043 0-0.095 0-0.146 0-61.24 0-114.037-36.15-138.215-88.275l-0.392-0.941c-16.407-35.525-51.728-59.733-92.704-59.733-0.019 0-0.038 0-0.057 0h-123.218v196.267zM271.403 468.907h123.221c0.043 0 0.095 0 0.146 0 61.24 0 114.037 36.15 138.215 88.275l0.392 0.941c16.407 35.525 51.728 59.733 92.704 59.733 0.019 0 0.038 0 0.057 0h169.128v-247.083h-523.861zM310.059 50.006h-40.704l38.955 170.667h40.704zM554.325 50.006h-42.027v170.667h41.984zM797.312 50.006h-40.704l-38.955 170.667h40.704zM845.611 270.763h-624.555v50.005h624.555zM686.421 562.774c-42.415 0-76.8-34.385-76.8-76.8s34.385-76.8 76.8-76.8c42.415 0 76.8 34.385 76.8 76.8v0c0 42.415-34.385 76.8-76.8 76.8v0zM686.421 459.478c-14.728 0-26.667 11.939-26.667 26.667s11.939 26.667 26.667 26.667c14.728 0 26.667-11.939 26.667-26.667v0c-0.024-14.718-11.949-26.642-26.664-26.667h-0.002z" />
<glyph unicode="&#xe901;" glyph-name="nav_build_remont" data-tags="nav_build_remont" d="M694.443 333.782c19.836 31.059 31.616 68.93 31.616 109.552 0 0.036 0 0.071 0 0.107v-0.005 56.96h51.2v150.101h-51.2c-4.015 77.12-56.541 140.956-127.467 161.816l-1.259 0.317v40.704h-170.325v-40.917c-72.184-21.177-124.711-85.014-128.707-161.697l-0.018-0.436h-51.2v-149.888h51.2v-56.96c0-0.034 0-0.074 0-0.114 0-40.618 11.78-78.485 32.111-110.37l-0.495 0.83-201.899-56.448v-277.333h768v277.333zM512 183.467c-1.694-0.103-3.674-0.162-5.668-0.162-42.196 0-78.238 26.345-92.576 63.484l-0.23 0.678c-1.792 4.011-3.371 8.021-4.736 11.989 29.838-16.424 65.396-26.087 103.211-26.087s73.372 9.663 104.339 26.654l-1.128-0.567c-1.408-3.968-2.987-8.021-4.736-11.989-14.568-37.817-50.61-64.162-92.806-64.162-1.994 0-3.974 0.059-5.939 0.175l0.271-0.013zM365.909 229.291c11.017-26.275 27.838-48.232 48.949-65.026l0.331-0.254c19.781-15.119 44.005-25.419 70.404-28.726l0.722-0.074v-85.333h-205.312v218.325l68.565 19.157c3.346-21.742 9.047-41.28 16.946-59.65l-0.605 1.581zM537.259 135.424c27.12 3.381 51.345 13.681 71.482 29.061l-0.356-0.261c21.443 17.047 38.264 39.004 48.882 64.216l0.398 1.064c7.348 16.784 13.105 36.315 16.332 56.689l0.18 1.38 68.565-19.157v-218.197h-205.269zM674.645 650.496h-77.653v108.971c43.59-18.753 74.258-59.905 77.631-108.572l0.022-0.399zM546.048 803.328v-152.832h-68.267v152.832zM427.008 759.467v-108.8h-77.653c3.46 48.997 34.111 90.073 76.825 108.482l0.828 0.318zM298.027 600.491h427.947v-50.091h-427.947zM674.944 500.395v-56.96c-1.484-88.874-73.877-160.35-162.965-160.35s-161.481 71.476-162.963 160.21l-0.002 0.139v56.96zM178.987 239.702l51.2 14.251v-203.989h-51.2zM845.013 49.963h-51.2v204.032l51.2-14.251z" />
<glyph unicode="&#xe902;" glyph-name="nav_electronic" data-tags="nav_electronic" d="M85.333 170.667h266.837v512h-266.837zM135.339 219.606v218.197h166.827v-218.197zM135.339 486.742v49.024h166.827v-49.024zM302.165 633.728v-49.195h-166.827v49.195zM938.667 268.8v413.867h-536.448v-413.867h176.469v-49.024h-50.048v-49.109h283.563v48.939h-50.048v49.195zM888.661 633.899v-218.368h-436.437v218.197zM452.224 366.592h436.395v-49.024h-436.395zM712.149 219.606h-83.456v49.195h83.456zM185.387 318.422h66.773v-50.005h-66.773z" />
<glyph unicode="&#xe903;" glyph-name="nav_fashion" data-tags="nav_fashion" d="M749.867 768.171h-475.733l-188.8-252.416 426.667-472.917 426.667 472.917zM748.501 686.891l108.373-144.853h-145.664zM705.067 718.806l-37.163-144.384-106.667 144.384zM629.845 542.038h-235.691l117.845 159.36zM462.805 718.635l-106.667-144.384-37.163 144.384zM275.541 686.72l37.248-144.683h-145.664zM173.141 492.544h154.496l113.365-296.832zM512 149.846l-130.859 342.656h261.717zM582.997 195.67l113.365 296.832h154.325z" />
<glyph unicode="&#xe904;" glyph-name="nav_food" data-tags="nav_food" d="M878.677 377.856v174.933c0 0.018 0 0.039 0 0.061 0 39.509-28.368 72.392-65.847 79.393l-0.5 0.078c-14.483 2.701-25.301 15.242-25.301 30.31 0 0.009 0 0.019 0 0.028v-0.001 185.216h-183.467v-185.088c0-0.008 0-0.017 0-0.026 0-15.068-10.818-27.609-25.111-30.28l-0.191-0.030c-20.12-3.768-37.231-14.563-49.061-29.689l-0.134-0.177-145.067 145.237c-31.666 31.666-75.412 51.252-123.733 51.252-96.642 0-174.985-78.344-174.985-174.985 0-48.321 19.586-92.067 51.252-123.733l122.453-122.453h-173.653v-166.656h21.888l23.552-153.088c5.532-36.204 36.45-63.616 73.771-63.616 0.090 0 0.18 0 0.27 0h614.386c0.101 0 0.221-0.001 0.341-0.001 37.321 0 68.239 27.413 73.719 63.202l0.052 0.415 23.552 153.088h21.803v166.613zM653.653 797.867h83.328v-50.005h-83.328zM562.005 552.96c0 0.008 0 0.017 0 0.026 0 15.068 10.818 27.609 25.111 30.28l0.191 0.030c37.979 7.078 66.347 39.961 66.347 79.47 0 0.006 0 0.013 0 0.019v-0.001 35.072h83.328v-35.072c0.016-39.511 28.401-72.387 65.89-79.368l0.499-0.077c14.483-2.701 25.301-15.242 25.301-30.31 0-0.009 0-0.019 0-0.028v0.001-41.771h-133.205v-133.333h-133.461zM828.672 461.227v-83.328h-83.328v83.285zM171.947 535.68c-21.698 22.455-35.069 53.078-35.069 86.823 0 69.043 55.97 125.013 125.013 125.013 33.745 0 64.368-13.371 86.859-35.103l-0.036 0.034 163.285-163.243v-171.307h-182.272zM843.819 65.75c-1.794-12.13-12.133-21.333-24.621-21.333-0.029 0-0.058 0-0.087 0h-614.311c-0.025 0-0.054 0-0.083 0-12.489 0-22.828 9.203-24.605 21.198l-0.017 0.136-22.229 145.451h708.267zM888.661 261.206h-753.323v66.645h753.323zM196.437 580.48h50.005c0.024 31.755 25.76 57.49 57.512 57.515h0.002v49.963c-59.347-0.049-107.447-48.134-107.52-107.47v-0.007zM275.797 501.12h50.005c0.024 31.755 25.76 57.49 57.512 57.515h0.002v50.005c-59.362-0.049-107.471-48.158-107.52-107.515v-0.005zM355.157 421.675h50.005c0.024 31.755 25.76 57.49 57.512 57.515h0.002v50.005c-59.362-0.049-107.471-48.158-107.52-107.515v-0.005z" />
<glyph unicode="&#xe905;" glyph-name="nav_for_office" data-tags="nav_for_office" d="M838.656 553.344v299.989h-653.312v-200.021h-100.011v-653.312h853.333v553.344zM788.651 803.328v-349.867h-50.005v349.867zM688.64 803.328v-349.867h-49.963v349.867zM235.307 803.328h353.493v-349.867h-61.483l-101.632 199.851h-190.336zM888.661 50.006h-753.323v553.344h259.669l101.675-200.021h392.021zM838.656 453.334v50.133h50.005v-50.133zM285.312 100.011h453.333v249.984h-453.333zM335.317 299.99h353.323v-150.016h-353.323z" />
<glyph unicode="&#xe906;" glyph-name="nav_for-cars" data-tags="nav_for-cars" d="M512 753.323c-180.407 0-326.656-146.249-326.656-326.656s146.249-326.656 326.656-326.656c180.407 0 326.656 146.249 326.656 326.656v0c-0.218 180.319-146.336 326.437-326.635 326.656h-0.021zM512 703.318c126.074-0.196 232.407-84.486 265.923-199.768l0.488-1.96h-32c-42.872 0.165-81.517 18.126-108.957 46.874l-0.056 0.059c-31.815 32.672-76.229 52.939-125.376 52.939s-93.561-20.268-125.339-52.901l-0.037-0.039c-27.496-28.808-66.141-46.769-108.983-46.933h-31.988c33.996 117.215 140.287 201.492 266.298 201.728h0.027zM245.675 351.659h33.067c42.339-0.219 80.468-18.065 107.456-46.566l0.064-0.068c2.304-2.347 4.693-4.693 7.083-6.912 28.93-27.331 46.938-65.958 46.938-108.791 0-0.393-0.002-0.786-0.005-1.178v0.060-28.757c-94.327 26.135-167.328 98.345-194.112 190.25l-0.49 1.963zM490.453 150.827v37.333c0.001 0.278 0.002 0.607 0.002 0.936 0 57.423-24.239 109.184-63.042 145.611l-0.106 0.099c-1.749 1.621-3.456 3.285-5.077 4.992-36.289 37.761-87.062 61.371-143.353 61.866l-0.092 0.001h-42.24c-0.725 8.235-1.152 16.555-1.152 25.003s0.384 16.768 1.152 25.003h41.131c56.939 0.128 108.296 23.915 144.783 62.049l0.070 0.074c22.706 23.414 54.456 37.946 89.6 37.946s66.894-14.532 89.569-37.914l0.031-0.032c36.519-38.168 87.807-61.945 144.65-62.123h41.164c0.725-8.235 1.152-16.555 1.152-25.003s-0.384-16.768-1.152-25.003h-40.789c-57.097-0.153-108.603-23.962-145.257-62.139l-0.066-0.069-1.749-1.749c-36.529-36.329-59.136-86.624-59.136-142.199 0-0.033 0-0.067 0-0.1v0.005-43.904c-8.521-0.924-18.404-1.451-28.41-1.451-0.032 0-0.064 0-0.097 0h0.005q-10.965-0.085-21.589 0.768zM590.549 161.366v34.133c0 0.049 0 0.108 0 0.166 0 41.607 16.895 79.268 44.199 106.497l2.478 2.478c27.661 28.913 66.489 46.946 109.531 47.147h31.61c-26.558-91.627-96.602-162.573-185.723-189.902l-1.968-0.519zM813.696 728.363c-77.077 76.424-183.211 123.649-300.375 123.649-235.641 0-426.667-191.025-426.667-426.667 0-117.164 47.225-223.297 123.679-300.404l-0.029 0.029c77.077-76.424 183.211-123.649 300.375-123.649 235.641 0 426.667 191.025 426.667 426.667 0 117.164-47.225 223.297-123.679 300.404l0.029-0.029zM778.325 160.299c-68.299-69.005-163.032-111.734-267.745-111.734-208.024 0-376.661 168.637-376.661 376.661 0 104.723 42.738 199.464 111.723 267.734l0.033 0.032c68.426 69.825 163.708 113.11 269.1 113.11 208.024 0 376.661-168.637 376.661-376.661 0-105.392-43.285-200.674-113.048-269.038l-0.063-0.061zM587.008 426.667c0 41.426-33.582 75.008-75.008 75.008s-75.008-33.582-75.008-75.008c0-41.426 33.582-75.008 75.008-75.008v0c41.406 0.049 74.96 33.602 75.008 75.003v0.005zM486.997 426.667c0 13.809 11.194 25.003 25.003 25.003s25.003-11.194 25.003-25.003c0-13.809-11.194-25.003-25.003-25.003v0c-13.799 0.024-24.978 11.204-25.003 25v0.002z" />
<glyph unicode="&#xe907;" glyph-name="nav_forkids" data-tags="nav_forkids" d="M238.72 190.592c-48.992 19.237-90.477 39.87-129.892 63.592l3.854-2.152-27.349-40.832c121.887-74.546 268.38-120.675 425.24-125.829l1.427-0.037c158.28 5.359 304.738 51.464 430.578 128.079l-3.911-2.212-27.349 40.832c-35.646-21.709-77.14-42.322-120.416-59.399l-5.622-1.955c-6.108 45.779-23.194 86.688-48.512 121.179l0.512-0.731v91.221c20.678-15.275 46.672-24.448 74.809-24.448 0.1 0 0.2 0 0.3 0h-0.016c0.526-0.014 1.146-0.021 1.767-0.021 40.413 0 73.173 32.761 73.173 73.173s-32.761 73.173-73.173 73.173c-0.621 0-1.241-0.008-1.858-0.023l0.091 0.002h-325.419v73.131c-1.412 94.563-78.4 170.678-173.166 170.678-0.711 0-1.422-0.004-2.131-0.013l0.108 0.001h-175.232v-48.768h50.091v-243.797h100.096v-164.309c-24.818-33.783-41.907-74.724-47.853-119.191l-0.147-1.343zM812.373 475.435c0.304 0.014 0.661 0.021 1.020 0.021 13.479 0 24.405-10.927 24.405-24.405s-10.927-24.405-24.405-24.405c-0.359 0-0.716 0.008-1.071 0.023l0.051-0.002c-0.148-0.001-0.323-0.002-0.498-0.002-32.017 0-59.354 20.037-70.155 48.255l-0.173 0.515zM387.499 146.902c-0.384 3.925-0.597 7.851-0.597 11.776 1.824 67.717 57.153 121.916 125.141 121.916s123.317-54.199 125.138-121.748l0.004-0.168c0-3.968-0.213-7.893-0.597-11.819-37.338-7.857-80.342-12.489-124.38-12.756l-0.207-0.001c-44.199 0.22-87.198 4.792-128.759 13.308l4.215-0.722zM587.136 475.435v-48.768h-100.181v48.768zM236.672 524.203v195.029h75.093c0.423 0.005 0.922 0.008 1.421 0.008 67.694 0 122.691-54.361 123.719-121.81l0.001-0.097v-219.435h200.235v97.536h50.048v-180.267c27.508-33.257 45.537-75.266 49.438-121.3l0.055-0.812c-15.787-5.205-32.341-10.197-49.493-14.763v0c-2.642 94.742-80.075 170.539-175.211 170.539s-172.569-75.796-175.205-170.295l-0.005-0.244c-17.408 4.608-34.133 9.557-49.493 14.677 4.024 46.85 22.041 88.856 49.797 122.535l-0.304-0.38v242.133c29.904 16.852 49.822 48.315 50.048 84.448v0.032h-50.005c-0.18-21.295-13.933-39.33-33.021-45.892l-0.344-0.103-16.683-5.76v-45.781z" />
<glyph unicode="&#xe908;" glyph-name="nav_gamingzone" data-tags="nav_gamingzone" d="M728.619 499.328h-188.8v29.184c0.145 16.078 13.212 29.057 29.311 29.057 0.060 0 0.121 0 0.181-0.001h118.86c46.327 0 83.883 37.556 83.883 83.883s-37.556 83.883-83.883 83.883h-118.869c-0.051 0-0.111-0.001-0.172-0.001-16.099 0-29.166 12.978-29.311 29.043v56.291h-55.467v-56.448c0.409-46.416 38.131-83.886 84.605-83.886 0.256 0 0.512 0.001 0.768 0.003h118.83c0.332 0.014 0.722 0.021 1.113 0.021 16.047 0 29.056-13.009 29.056-29.056s-13.009-29.056-29.056-29.056c-0.391 0-0.781 0.008-1.169 0.023l0.056-0.002h-119.253c-0.216 0.002-0.472 0.003-0.728 0.003-46.474 0-84.196-37.47-84.605-83.847v-29.095h-188.587c-1.771 0.054-3.853 0.085-5.943 0.085-114.333 0-207.019-92.685-207.019-207.019s92.685-207.019 207.019-207.019c2.090 0 4.173 0.031 6.248 0.092l-0.304-0.007c0.099 0 0.216 0 0.333 0 41.428 0 80.077 11.902 112.713 32.473l-0.875-0.515c27.614 17.358 50.277 40.102 67.029 66.918l0.512 0.88h73.856c17.265-27.695 39.927-50.439 66.676-67.288l0.866-0.509c31.765-20.056 70.417-31.958 111.85-31.958 0.113 0 0.226 0 0.339 0h-0.017c1.771-0.054 3.853-0.085 5.943-0.085 114.333 0 207.019 92.685 207.019 207.019s-92.685 207.019-207.019 207.019c-2.090 0-4.173-0.031-6.248-0.092l0.304 0.007zM728.619 140.203c-0.296-0.002-0.646-0.003-0.997-0.003-59.702 0-111.462 34.005-136.968 83.703l-0.404 0.866-7.68 15.232h-141.184l-7.68-15.232c-25.297-52.149-77.841-87.466-138.634-87.466-84.831 0-153.6 68.769-153.6 153.6s68.769 153.6 153.6 153.6c0.093 0 0.187 0 0.28 0h433.266c84.030 0 152.149-68.12 152.149-152.149s-68.12-152.149-152.149-152.149v0zM323.2 320.683v42.667h-55.467v-42.667h-42.667v-55.467h42.667v-42.667h55.467v42.667h42.667v55.467zM728.533 366.166c-40.483 0-73.301-32.818-73.301-73.301s32.818-73.301 73.301-73.301c40.483 0 73.301 32.818 73.301 73.301v0c-0.049 40.464-32.838 73.253-73.297 73.301h-0.005zM728.533 275.2c-9.756 0-17.664 7.908-17.664 17.664s7.908 17.664 17.664 17.664c9.756 0 17.664-7.908 17.664-17.664v0c-0.024-9.737-7.923-17.621-17.664-17.621 0 0 0 0 0 0v0z" />
<glyph unicode="&#xe909;" glyph-name="nav_health_beauty" data-tags="nav_health_beauty" d="M853.163 825.899c-25.911 17.193-57.733 27.432-91.947 27.432s-66.035-10.239-92.569-27.82l0.622 0.388c-17.948-12.354-31.526-29.915-38.655-50.489l-0.214-0.711h-113.792v41.984h-150.784v-130.816h-26.325v-102.912h-50.773v-102.4l-14.848-8.533c-52.405-30.839-89.573-82.781-99.967-143.845l-0.172-1.221c-1.975-10.835-3.104-23.304-3.104-36.037 0-51.737 18.64-99.119 49.571-135.799l-0.26 0.316 68.779-81.707v-73.728h304.683v73.387l68.779 81.707c30.671 36.363 49.312 83.746 49.312 135.483 0 12.733-1.129 25.203-3.293 37.314l0.189-1.276c-10.565 62.286-47.734 114.227-99.172 144.54l-0.966 0.527-14.848 8.533v102.4h-50.773v103.253h-26.027v38.955h113.963c7.344-21.285 20.921-38.846 38.529-50.978l0.341-0.222c25.911-17.193 57.733-27.432 91.947-27.432s66.035 10.239 92.569 27.82l-0.622-0.388c25.074 16.596 41.642 44.296 42.663 75.925l0.004 0.15c-1.024 31.779-17.593 59.479-42.316 75.856l-0.35 0.218zM625.493 187.734l-80.64-95.787v-41.984h-207.445v41.984l-80.64 95.787c-23.28 27.608-37.428 63.58-37.428 102.856 0 9.668 0.857 19.136 2.5 28.331l-0.143-0.969c0.299 1.792 0.64 3.584 1.024 5.376h436.864c0.384-1.792 0.725-3.584 1.024-5.376 1.495-8.214 2.349-17.667 2.349-27.32 0-39.295-14.162-75.283-37.66-103.138l0.197 0.239zM584.533 428.246c23.015-13.523 41.735-32.066 55.076-54.214l0.39-0.698h-397.952c13.732 22.846 32.451 41.389 54.741 54.517l0.725 0.395 39.68 22.912v81.792h207.445v-81.707zM388.267 582.87v52.864h105.899v-52.907zM414.592 685.782v80.939h53.248v-80.853zM761.301 696.235c-45.867 0-86.101 25.003-86.101 53.504s40.235 53.504 86.101 53.504 86.101-25.003 86.101-53.504-40.32-53.376-86.187-53.376z" />
<glyph unicode="&#xe90a;" glyph-name="nav_home_garden" data-tags="nav_home_garden" d="M512 797.184l-426.667-333.568 89.6-118.144 43.776 34.133v-307.712h586.795v307.669l43.776-34.133 89.387 118.187zM554.667 122.752h-85.333v182.016h85.333zM755.584 122.752h-150.955v232.875h-185.259v-232.917h-150.827v295.979l243.456 190.421 243.456-190.421v-295.979zM840.107 416.683l-328.107 256.64-328.107-256.64-28.331 37.461 356.437 278.827 356.48-278.827z" />
<glyph unicode="&#xe90b;" glyph-name="nav_industrial" data-tags="nav_industrial" d="M938.667 621.824c-1.268 82.75-68.646 149.344-151.578 149.344-0.621 0-1.241-0.004-1.86-0.011l0.094 0.001h-360.576v-42.667h-130.347c-0.277 0.003-0.604 0.004-0.931 0.004-50.476 0-92.964-34.198-105.559-80.689l-0.177-0.766h-102.4v-50.901h102.4c12.86-47.127 55.285-81.199 105.668-81.199 0.351 0 0.702 0.002 1.052 0.005h130.294v-42.667h181.12l20.011-112.896h82.048l18.901-94.549h-135.552v-176.427h304.725v153.6l-48.597 243.2c53.791 23.129 90.857 75.495 91.264 136.567v0.052zM424.747 565.846h-130.347c-0.652-0.027-1.417-0.043-2.186-0.043-30.94 0-56.021 25.082-56.021 56.021s25.082 56.021 56.021 56.021c0.769 0 1.534-0.015 2.295-0.046l-0.109 0.003h130.347zM478.72 523.179v197.12h201.899v-196.992zM669.867 410.411l-10.965 62.037h26.496l12.373-62.037zM733.184 720.299h52.139c0.61 0.014 1.329 0.021 2.050 0.021 54.41 0 98.517-44.108 98.517-98.517s-44.108-98.517-98.517-98.517c-0.721 0-1.44 0.008-2.157 0.023l0.107-0.002h-52.139v196.992zM838.272 264.96h-58.283l-41.259 206.677h58.283zM643.541 139.435v74.667h200.32v-74.667z" />
<glyph unicode="&#xe90c;" glyph-name="nav_music" data-tags="nav_music" d="M401.963 752.043v-437.12c-23.882 13.783-52.527 21.915-83.072 21.915-93.008 0-168.405-75.398-168.405-168.405s75.398-168.405 168.405-168.405c93.008 0 168.405 75.398 168.405 168.405 0 0.141 0 0.281-0.001 0.422v-0.022 513.835l341.333 67.541v-351.061c-23.882 13.783-52.527 21.915-83.072 21.915-93.008 0-168.405-75.398-168.405-168.405s75.398-168.405 168.405-168.405c93.008 0 168.405 75.398 168.405 168.405 0 0.141 0 0.281-0.001 0.422v-0.022 600.277zM316.629 84.395c-46.204 0.53-83.456 38.11-83.456 84.389 0 46.61 37.785 84.395 84.395 84.395 46.608 0 84.392-37.782 84.395-84.389v0c-0.314-46.677-38.226-84.396-84.948-84.396-0.136 0-0.271 0-0.407 0.001h0.021zM743.296 168.79c-46.204 0.53-83.456 38.11-83.456 84.389 0 46.61 37.785 84.395 84.395 84.395 46.608 0 84.392-37.782 84.395-84.389v0c-0.338-46.659-38.241-84.353-84.947-84.353-0.136 0-0.271 0-0.407 0.001h0.021z" />
<glyph unicode="&#xe90d;" glyph-name="nav_pets" data-tags="nav_pets" d="M744.235 733.568c-52.319 72.858-136.8 119.756-232.235 119.756s-179.915-46.898-231.653-118.905l-0.582-0.851c-112.358-27.384-194.457-127.16-194.457-246.11 0-1.257 0.009-2.512 0.027-3.764l-0.002 0.189v-104.917c-0.010-0.565-0.016-1.232-0.016-1.9 0-56.393 42.324-102.902 96.94-109.493l0.527-0.052c-0.016-0.94-0.026-2.049-0.026-3.16 0-35.548 9.511-68.875 26.126-97.575l-0.501 0.938c21.844-38.032 55.966-66.916 96.864-81.566l1.269-0.397c16.786-6.015 36.152-9.491 56.33-9.491 6.384 0 12.686 0.348 18.89 1.026l-0.767-0.068c25.912-46.494 74.784-77.425 130.88-77.425s104.968 30.93 130.492 76.667l0.388 0.758c5.473-0.622 11.816-0.977 18.243-0.977 20.138 0 39.463 3.484 57.405 9.881l-1.194-0.371c42.169 15.043 76.293 43.929 97.665 81.080l0.468 0.883c16.115 27.77 25.625 61.104 25.625 96.66 0 1.103-0.009 2.205-0.027 3.304l0.002-0.166c55.283 6.504 97.765 53.081 97.765 109.579 0 0.656-0.006 1.311-0.017 1.964l0.001-0.098v104.917c0.016 1.063 0.025 2.318 0.025 3.575 0 118.951-82.099 218.726-192.725 245.753l-1.732 0.358zM888.661 378.966c0.008-0.367 0.013-0.799 0.013-1.233 0-30.402-23.075-55.415-52.667-58.479l-0.252-0.021c-6.613 52.181-22.144 176.384-33.152 264.832-3.516 29.817-10.632 56.988-20.983 82.501l0.759-2.117c63.808-35.349 106.289-102.287 106.289-179.147 0-0.574-0.002-1.147-0.007-1.72l0.001 0.088zM772.693 194.56c-15.797-27.474-40.47-48.333-70.038-58.893l-0.917-0.286c-12.106-4.172-26.057-6.581-40.57-6.581-52.024 0-96.818 30.954-116.97 75.449l-0.327 0.807c5.931 3.627 12.501 8.021 19.115 12.8 26.123 15.938 44.010 43.155 46.905 74.711l0.028 0.383c0 52.181-36.651 83.328-98.133 83.328s-98.133-31.147-98.133-83.328c2.916-31.941 20.806-59.161 46.504-74.85l0.43-0.244c6.613-4.992 13.227-9.387 19.115-12.8-20.479-45.302-65.273-76.256-117.297-76.256-14.513 0-28.463 2.409-41.473 6.849l0.903-0.268c-30.314 10.933-54.83 31.773-70.19 58.539l-0.338 0.64c-11.791 20.175-18.752 44.418-18.752 70.287 0 7.676 0.613 15.209 1.793 22.553l-0.107-0.808c1.28 8.149 30.677 243.883 36.565 291.029v0.299c12.303 124.232 115.106 220.797 240.957 223.186l0.238 0.004c125.991-2.524 228.669-99.038 240.899-222.163l0.082-1.026v-0.256c5.888-47.189 35.285-282.88 36.565-291.029 1.073-6.536 1.686-14.069 1.686-21.745 0-25.869-6.962-50.112-19.114-70.958l0.361 0.671zM512 52.224c-32.101 0.165-60.637 15.281-79.023 38.735l-0.166 0.22c32.913 14.832 59.829 38.032 78.762 66.932l0.427 0.695c19.35-29.59 46.251-52.788 77.999-67.162l1.147-0.465c-18.544-23.663-47.062-38.776-79.117-38.955h-0.030zM463.957 293.163c0 9.301 0 31.104 48.043 31.104s48.043-21.803 48.043-31.104c0-10.624-19.243-31.36-47.957-47.189-22.656 12.715-48.128 33.707-48.128 47.189zM135.424 379.008v104.875c-0.004 0.485-0.007 1.058-0.007 1.632 0 76.86 42.481 143.798 105.245 178.615l1.045 0.532c-9.592-23.396-16.708-50.567-20.079-78.887l-0.145-1.497c-11.008-88.491-26.539-212.736-33.152-264.832-29.844 3.085-52.92 28.098-52.92 58.5 0 0.434 0.005 0.866 0.014 1.297l-0.001-0.064zM377.472 539.435h50.005v-91.307h-50.005zM596.523 539.435h50.048v-91.307h-50.005zM305.28 280.576h50.005v-50.005h-50.005zM668.672 280.576h50.005v-50.005h-50.005z" />
<glyph unicode="&#xe90e;" glyph-name="nav_pharmacy" data-tags="nav_pharmacy" d="M685.269 703.318c-12.311 85.63-85.179 150.709-173.248 150.709s-160.937-65.079-173.137-149.77l-0.111-0.939h-253.44v-703.317h853.333v703.317zM512 803.328c69.066 0 125.056-55.989 125.056-125.056s-55.989-125.056-125.056-125.056c-69.067 0-125.056 55.989-125.056 125.056 0 0.045 0 0.090 0 0.135v-0.007c0.146 68.982 56.064 124.855 125.049 124.928h0.007zM135.339 653.312h203.392c5.87-39.551 24.228-74.027 50.868-100.064l0.033-0.032h-254.293zM788.651 50.006h-151.637v352.469h151.68zM888.661 50.006h-50.005v402.261h-251.733v-402.475h-451.584v453.419h753.323zM888.661 553.216h-254.293c26.681 26.080 45.041 60.572 50.784 99.181l0.117 0.957h203.392zM537.003 703.275v50.048h-50.005v-50.048h-50.048v-50.005h50.048v-50.048h50.005v50.048h50.048v50.005zM185.429 452.48v-302.336h351.488v302.336zM486.955 200.15h-251.52v202.325h251.52z" />
<glyph unicode="&#xe90f;" glyph-name="nav_services" data-tags="nav_services" d="M512 669.824c-134.316 0-243.2-108.884-243.2-243.2s108.884-243.2 243.2-243.2c134.316 0 243.2 108.884 243.2 243.2v0c-0.146 134.257-108.943 243.054-243.186 243.2h-0.014zM512 233.472c-106.698 0-193.195 86.496-193.195 193.195s86.496 193.195 193.195 193.195c106.698 0 193.195-86.496 193.195-193.195v0c-0.121-106.65-86.545-193.073-193.183-193.195h-0.011zM938.667 327.808v197.717h-86.699c-8.032 27.459-18.138 51.273-30.609 73.586l0.913-1.778 61.355 61.099-139.861 139.861-61.099-61.355c-20.475 11.601-44.211 21.759-69.11 29.227l-2.484 0.64v86.528h-197.931v-86.699c-27.459-8.031-51.273-18.137-73.585-30.608l1.777 0.912-61.099 61.355-139.861-139.861 61.355-61.099c-11.601-20.475-21.759-44.211-29.227-69.111l-0.64-2.484h-86.528v-197.76h86.699c8.018-27.52 18.125-51.393 30.609-73.759l-0.913 1.781-61.355-61.099 139.861-139.861 61.099 61.355c20.475-11.601 44.211-21.759 69.111-29.227l2.484-0.64v-86.528h197.76v86.699c27.384 8.107 51.12 18.266 73.355 30.777l-1.76-0.91 61.312-61.312 139.819 139.819-61.141 60.928c11.601 20.475 21.759 44.211 29.227 69.111l0.64 2.484zM812.928 194.902l-69.163-69.163-53.717 53.717-17.067-10.581c-26.686-16.974-57.712-30.216-90.843-37.996l-2.042-0.404-19.413-4.267v-75.947h-97.579v75.947l-19.413 4.267c-35.173 8.184-66.199 21.426-94.117 39.13l1.232-0.73-17.067 10.581-53.504-53.717-69.163 69.163 53.717 53.717-10.581 17.067c-16.974 26.686-30.216 57.712-37.996 90.843l-0.404 2.042-4.267 19.413h-76.245v97.579h75.947l4.267 19.413c8.184 35.173 21.426 66.199 39.13 94.117l-0.73-1.232 10.581 17.067-53.419 53.504 69.163 69.163 53.717-53.717 17.067 10.581c26.686 16.975 57.712 30.217 90.844 37.996l2.042 0.404 19.413 4.267v76.245h97.792v-75.947l19.413-4.267c35.173-8.184 66.199-21.426 94.117-39.13l-1.232 0.73 17.067-10.581 53.717 53.717 69.163-69.163-54.144-54.016 10.581-17.067c16.975-26.686 30.217-57.712 37.996-90.844l0.404-2.042 4.267-19.413h75.947v-97.792h-75.947l-4.267-19.413c-8.183-35.173-21.425-66.199-39.129-94.117l0.729 1.231-10.581-17.067zM608.512 491.819c-3.957-3.714-9.296-5.995-15.168-5.995-12.253 0-22.187 9.933-22.187 22.187 0 5.872 2.281 11.212 6.006 15.18l-0.011-0.012 18.475 18.475-35.328 35.328-18.475-18.475c-13.013-13.068-21.059-31.093-21.059-50.997 0-10.904 2.415-21.244 6.738-30.515l-0.186 0.445-65.963-65.963c-8.826 4.137-19.166 6.552-30.070 6.552-19.904 0-37.928-8.045-50.999-21.061l-18.472-18.472 35.328-35.328 18.475 18.475c4.059 4.324 9.81 7.018 16.192 7.018 12.253 0 22.187-9.933 22.187-22.187 0-6.381-2.694-12.133-7.006-16.181l-0.012-0.011-18.475-18.475 35.328-35.328 18.475 18.475c13.018 13.063 21.067 31.085 21.067 50.988 0 10.908-2.418 21.251-6.747 30.523l0.186-0.444 65.963 65.963c8.824-4.132 19.161-6.544 30.061-6.544 19.905 0 37.932 8.042 51.009 21.053l18.472 18.472-35.328 35.328z" />
<glyph unicode="&#xe910;" glyph-name="nav_smartsystems" data-tags="nav_smartsystems" d="M822.315 248.278c-31.689-0.023-58.701-20.023-69.125-48.087l-0.166-0.51h-46.677v97.792l95.317 95.061-33.664 45.952c3.619 7.207 7.437 16.211 10.743 25.457l0.564 1.807 56.277 8.533v154.411l-56.277 8.533c-3.868 11.069-7.686 20.087-11.982 28.828l0.676-1.521 33.707 45.824-109.312 109.141-45.867-33.664c-7.207 3.611-16.225 7.429-25.485 10.738l-1.822 0.568-8.619 56.192h-154.539l-8.533-56.192c-11.074-3.871-20.092-7.689-28.833-11.984l1.526 0.678-45.952 33.664-109.269-109.141 33.664-45.824c-3.609-7.195-7.427-16.198-10.737-25.443l-0.569-1.821-56.235-8.533v-154.411l56.235-8.533c3.875-11.078 7.692-20.096 11.986-28.838l-0.679 1.531-33.664-45.952 95.317-95.189v-97.664h-46.677c-10.54 28.583-37.544 48.597-69.223 48.597-40.648 0-73.6-32.952-73.6-73.6s32.952-73.6 73.6-73.6c31.679 0 58.683 20.014 69.058 48.088l0.165 0.51h96.725v160.299l9.771 7.168c7.211-3.614 16.229-7.432 25.489-10.74l1.818-0.567 8.533-56.192h52.309v-106.88c-28.62-10.55-48.661-37.588-48.661-69.306 0-40.695 32.99-73.685 73.685-73.685s73.685 32.99 73.685 73.685c0 31.718-20.041 58.756-48.151 69.141l-0.51 0.165v106.923h52.224l8.533 56.192c11.066 3.865 20.084 7.683 28.824 11.981l-1.517-0.674 9.771-7.168v-160.299h96.725c10.53-28.63 37.565-48.683 69.284-48.683 40.672 0 73.643 32.971 73.643 73.643 0 40.669-32.967 73.639-73.635 73.643v0zM244.352 151.126c-13.031 0-23.595 10.564-23.595 23.595s10.564 23.595 23.595 23.595c13.031 0 23.595-10.564 23.595-23.595v0c-0.024-13.021-10.573-23.57-23.592-23.595h-0.002zM533.333 50.006c-13.013 0.024-23.552 10.579-23.552 23.595 0 13.031 10.564 23.595 23.595 23.595s23.595-10.564 23.595-23.595v0c-0.024-13.036-10.598-23.595-23.637-23.595 0 0 0 0 0 0v0zM636.459 368.299c-13.306-7.648-28.701-14.193-44.9-18.837l-1.479-0.363-15.573-4.267-7.040-45.141h-68.267l-7.083 45.056-15.573 4.267c-17.677 5.005-33.072 11.55-47.406 19.741l1.027-0.541-14.080 7.936-36.821-27.008-48.469 48.512 27.051 36.779-7.979 14.080c-7.657 13.32-14.202 28.73-18.839 44.947l-0.361 1.475-4.267 15.531-45.227 6.784v68.48l45.141 6.912 4.267 15.531c5.034 17.662 11.607 33.040 19.824 47.354l-0.539-1.018 7.936 14.080-27.051 36.779 48.512 48.427 36.821-27.008 14.080 7.936c13.319 7.651 28.729 14.197 44.943 18.838l1.478 0.362 15.573 4.267 7.040 45.141h68.267l6.912-45.099 15.573-4.267c17.677-5.007 33.072-11.552 47.407-19.741l-1.028 0.541 14.080-7.936 36.821 27.008 48.512-48.427-27.051-36.779 7.936-14.080c7.664-13.295 14.223-28.675 18.879-44.86l0.363-1.476 4.267-15.531 45.141-6.912v-68.523l-45.141-6.912-4.267-15.531c-4.965-17.643-11.468-33.012-19.612-47.325l0.54 1.032-7.936-14.080 27.051-36.779-48.512-48.427-36.821 27.008zM822.315 151.083c-13.013 0.024-23.552 10.579-23.552 23.595 0 13.031 10.564 23.595 23.595 23.595s23.595-10.564 23.595-23.595v0c-0.048-13.018-10.613-23.552-23.637-23.552 0 0 0 0 0 0v0zM533.333 708.864c-86.905 0-157.355-70.45-157.355-157.355s70.45-157.355 157.355-157.355c86.905 0 157.355 70.45 157.355 157.355v0c-0.097 86.865-70.489 157.257-157.345 157.355h-0.009zM533.333 444.331c-59.287 0-107.349 48.062-107.349 107.349s48.062 107.349 107.349 107.349c59.287 0 107.349-48.062 107.349-107.349v0c0-0.013 0-0.028 0-0.043 0-59.313-48.046-107.404-107.342-107.477h-0.007z" />
<glyph unicode="&#xe911;" glyph-name="nav_sport" data-tags="nav_sport" d="M911.829 811.051l-3.968 11.52-11.477 3.968c-54.783 17.145-117.776 27.022-183.075 27.022-9.786 0-19.521-0.222-29.199-0.661l1.373 0.050c-73.532-2.354-142.956-17.019-207.234-41.993l4.269 1.459c-163.44-65.742-290.525-192.827-354.752-352.017l-1.515-4.25c-23.495-59.999-38.146-129.41-40.466-201.935l-0.025-0.988c-0.389-8.303-0.611-18.036-0.611-27.821 0-65.301 9.877-128.295 28.218-187.571l-1.196 4.49 3.968-11.477 11.477-3.968c54.144-17.074 116.408-26.911 180.971-26.911 2.183 0 4.363 0.011 6.54 0.034l-0.332-0.003c7.723 0 15.659 0 23.723 0.427 73.513 2.344 142.924 16.995 207.194 41.95l-4.271-1.459c84.036 33.112 155.699 81.029 215.065 141.122l0.061 0.062c60.139 59.429 108.043 131.092 139.689 210.967l1.453 4.159c23.496 59.999 38.147 129.411 40.466 201.936l0.025 0.987c0.393 8.34 0.616 18.116 0.616 27.944 0 65.256-9.863 128.208-28.18 187.447l1.195-4.489zM868.139 782.806c13.042-47.501 20.537-102.042 20.537-158.334 0-8.614-0.175-17.186-0.523-25.715l0.040 1.222c0-3.627-0.299-7.211-0.512-10.795-51.992 16.786-96.445 44.527-132.471 80.673l-0.009 0.009c-36.134 36.062-63.849 80.546-79.951 130.258l-0.646 2.307 10.795 0.512c7.315 0.309 15.897 0.485 24.521 0.485 56.282 0 110.814-7.495 162.652-21.541l-4.346 1.003zM155.861 70.528c-13.043 47.5-20.537 102.039-20.537 158.33 0 8.615 0.176 17.19 0.523 25.72l-0.040-1.223c0 3.627 0.299 7.211 0.512 10.795 51.992-16.786 96.445-44.527 132.471-80.673l0.009-0.009c36.134-36.062 63.849-80.546 79.951-130.258l0.646-2.307-10.795-0.512c-7.315-0.309-15.897-0.485-24.521-0.485-56.282 0-110.814 7.495-162.652 21.541l4.346-1.003zM721.067 217.6c-54.245-55.066-119.605-99.015-192.461-128.231l-3.805-1.347c-35.924-14.293-77.879-25.524-121.442-31.773l-3.016-0.355c-18.636 64.070-51.857 118.971-95.951 162.981l-0.006 0.006c-44.056 44.141-99.018 77.381-160.501 95.335l-2.656 0.665c36 250.69 231.871 446.561 479.523 482.201l3.037 0.359c18.634-64.071 51.855-118.972 95.951-162.98l0.006-0.006c44.015-44.102 98.916-77.323 160.33-95.291l2.657-0.666c-6.604-46.58-17.835-88.534-33.452-128.285l1.324 3.826c-30.532-76.726-74.471-142.144-129.471-196.373l-0.065-0.064zM607.573 554.070l-31.872-31.872-31.872 31.872-31.829-31.829 31.872-31.872-31.872-31.872-31.872 31.872-31.829-31.829 31.872-31.872-31.872-31.872-31.872 31.872-31.829-31.829 31.872-31.872-31.872-31.872 31.829-31.829 31.872 31.872 31.872-31.872 31.829 31.829-31.872 31.872 31.872 31.872 31.872-31.872 31.829 31.829-31.872 31.872 31.872 31.872 31.872-31.872 31.829 31.829-31.872 31.872 31.872 31.872z" />
<glyph unicode="&#xe912;" glyph-name="facebook" data-tags="facebook" d="M711.014 542.021h-140.083v83.661c0 43.162 3.328 70.349 62.106 70.349h74.445v133.12c-31.57 3.591-68.159 5.639-105.227 5.639-1.329 0-2.657-0.003-3.984-0.008l0.206 0.001c-2.697 0.146-5.854 0.229-9.031 0.229-98.545 0-178.432-79.887-178.432-178.432 0-6.446 0.342-12.813 1.008-19.082l-0.067 0.78v-96.256h-119.194v-167.322h119.194v-376.474h158.72v376.627h121.856z" />
<glyph unicode="&#xe913;" glyph-name="gmail" data-tags="gmail" d="M520.704 501.777v-163.021h237.005c-30.043-98.917-120.435-169.668-227.353-169.668-3.395 0-6.773 0.071-10.133 0.213l0.48-0.016c-1.872-0.049-4.077-0.077-6.288-0.077-142.177 0-257.434 115.257-257.434 257.434s115.257 257.434 257.434 257.434c2.211 0 4.415-0.028 6.613-0.083l-0.325 0.006c0.144 0 0.316 0 0.487 0 64.991 0 124.507-23.44 170.556-62.327l-0.393 0.323 122.47 120.064c-77.187 69.050-179.65 111.259-291.972 111.259-0.404 0-0.808-0.001-1.211-0.002h0.063c-1.239 0.013-2.704 0.020-4.169 0.020-236.523 0-428.552-190.498-431.029-426.435l-0.002-0.234c2.478-236.171 194.508-426.67 431.031-426.67 1.466 0 2.93 0.007 4.393 0.022l-0.223-0.002c365.414 0 446.106 334.95 410.266 501.248z" />
<glyph unicode="&#xe914;" glyph-name="instagram" data-tags="instagram" d="M307.2 887.467c-141.385 0-256-114.615-256-256v0-409.6c0-141.385 114.615-256 256-256v0h409.6c141.385 0 256 114.615 256 256v0 409.6c0 141.385-114.615 256-256 256v0zM819.2 785.067c28.277 0 51.2-22.923 51.2-51.2s-22.923-51.2-51.2-51.2c-28.277 0-51.2 22.923-51.2 51.2v0c0 28.277 22.923 51.2 51.2 51.2v0zM512 682.667c141.385 0 256-114.615 256-256s-114.615-256-256-256c-141.385 0-256 114.615-256 256v0c0 141.385 114.615 256 256 256v0zM512 580.267c-84.831 0-153.6-68.769-153.6-153.6s68.769-153.6 153.6-153.6c84.831 0 153.6 68.769 153.6 153.6v0c0 84.831-68.769 153.6-153.6 153.6v0z" />
<glyph unicode="&#xe915;" glyph-name="ui_add" data-tags="ui_add" d="M449.178 887.467v-397.926h-397.978v-125.696h397.978v-397.978h125.696v397.978h397.926v125.696h-397.926v397.926z" />
<glyph unicode="&#xe916;" glyph-name="ui_arrow_left" data-tags="ui_arrow_left" d="M690.227 661.675l-72.192 72.192-307.2-307.2 307.2-307.2 72.192 72.192-234.496 235.008z" />
<glyph unicode="&#xe917;" glyph-name="ui_arrow_right" data-tags="ui_arrow_right" d="M333.773 191.659l72.192-72.192 307.2 307.2-307.2 307.2-72.192-72.192 234.496-235.008z" />
<glyph unicode="&#xe918;" glyph-name="ui_arrow2_left" data-tags="ui_arrow2_left" d="M418.509 82.603l71.373 72.96-217.549 222.464h669.747v97.28h-669.747l217.549 222.413-71.373 73.011-336.538-344.064z" />
<glyph unicode="&#xe919;" glyph-name="ui_arrow2_right" data-tags="ui_arrow2_right" d="M605.491 770.68l-71.373-72.96 217.549-222.464h-669.747v-97.28h669.747l-217.549-222.413 71.373-73.011 336.538 344.064z" />
<glyph unicode="&#xe91a;" glyph-name="ui_cart" data-tags="ui_cart" d="M214.579 836.267l-71.68-0.563c-22.501-0.16-40.679-18.437-40.679-40.96 0-22.622 18.339-40.961 40.961-40.961 0.099 0 0.198 0 0.297 0.001h-0.015l44.032 0.563 134.963-323.942-49.050-78.387c-7.477-12.526-11.897-27.626-11.897-43.759 0-46.874 37.316-85.032 83.861-86.388l0.125-0.003h453.171c22.622 0 40.96 18.338 40.96 40.96s-18.338 40.96-40.96 40.96h-453.171c-4.557 0-5.12 0.922-2.662 4.813v0l48.282 77.107h305.971c0.020 0 0.044 0 0.068 0 30.638 0 57.348 16.819 71.399 41.728l0.212 0.409 147.61 265.677c3.217 5.714 5.112 12.543 5.112 19.814 0 22.619-18.334 40.955-40.951 40.96h-604.519l-23.45 56.781c-6.341 14.919-20.873 25.191-37.803 25.191-0.066 0-0.132 0-0.198 0h0.010zM347.699 180.907c-45.243 0-81.92-36.677-81.92-81.92s36.677-81.92 81.92-81.92c45.243 0 81.92 36.677 81.92 81.92v0c0 45.243-36.677 81.92-81.92 81.92v0zM757.299 180.907c-45.243 0-81.92-36.677-81.92-81.92s36.677-81.92 81.92-81.92c45.243 0 81.92 36.677 81.92 81.92v0c0 0 0 0.001 0 0.001 0 45.099-36.444 81.686-81.488 81.919h-0.022z" />
<glyph unicode="&#xe91b;" glyph-name="ui_close_remove" data-tags="ui_close_remove" d="M177.562 836.267l-75.162-75.162 334.438-334.438-334.438-334.438 75.162-75.162 334.438 334.438 334.438-334.438 75.162 75.162-334.438 334.438 334.438 334.438-75.162 75.162-334.438-334.438z" />
<glyph unicode="&#xe91c;" glyph-name="ui_done" data-tags="ui_done" d="M416.666 119.467l-365.466 353.28 74.138 71.68 291.328-276.48 481.997 465.92 74.138-71.68z" />
<glyph unicode="&#xe91d;" glyph-name="ui_email" data-tags="ui_email" d="M512 887.467c-254.493 0-460.8-206.307-460.8-460.8s206.307-460.8 460.8-460.8v0h230.4v92.16h-230.4c-203.594 0-368.64 165.046-368.64 368.64s165.046 368.64 368.64 368.64c203.594 0 368.64-165.046 368.64-368.64v0-69.12c0-38.174-30.946-69.12-69.12-69.12s-69.12 30.946-69.12 69.12v0 69.12c0.005 0.565 0.008 1.233 0.008 1.901 0 128.236-103.956 232.192-232.192 232.192s-232.192-103.956-232.192-232.192c0-128.236 103.956-232.192 232.192-232.192 65.871 0 125.336 27.43 167.595 71.49l0.077 0.081c29.3-43.404 78.305-71.566 133.888-71.566 88.931 0 161.024 72.093 161.024 161.024 0 0.050 0 0.1 0 0.15v-0.008 69.12c-0.378 254.341-206.459 460.422-460.764 460.8h-0.036zM512 564.907c76.348 0 138.24-61.892 138.24-138.24s-61.892-138.24-138.24-138.24c-76.348 0-138.24 61.892-138.24 138.24v0c-0.001 0.214-0.002 0.466-0.002 0.719 0 75.952 61.571 137.523 137.523 137.523 0.253 0 0.505-0.001 0.758-0.002h-0.039z" />
<glyph unicode="&#xe91e;" glyph-name="ui_eye_view" data-tags="ui_eye_view" d="M512 680.926c-161.946 0-308.736-89.037-417.178-233.984-4.157-5.545-6.656-12.542-6.656-20.122s2.5-14.576 6.719-20.209l-0.063 0.088c108.39-145.152 255.232-234.342 417.178-234.342s308.736 89.037 417.178 233.984c4.157 5.545 6.656 12.542 6.656 20.122s-2.5 14.576-6.719 20.209l0.063-0.088c-108.442 145.152-255.232 234.342-417.178 234.342zM523.622 247.569c-3.767-0.282-8.161-0.443-12.592-0.443-98.969 0-179.2 80.231-179.2 179.2s80.231 179.2 179.2 179.2c98.969 0 179.2-80.231 179.2-179.2 0-4.005-0.131-7.98-0.39-11.92l0.028 0.535c-5.707-89.733-76.816-161.161-165.892-167.342l-0.56-0.031zM518.298 330.872c-1.868-0.13-4.049-0.204-6.248-0.204-52.991 0-95.949 42.958-95.949 95.949s42.958 95.949 95.949 95.949c52.991 0 95.949-42.958 95.949-95.949 0-2.198-0.074-4.379-0.219-6.54l0.016 0.293c-3.277-48.053-41.445-86.22-89.201-89.481l-0.297-0.016z" />
<glyph unicode="&#xe91f;" glyph-name="ui_gel" data-tags="ui_gel" d="M429.978 795.256l95.846 92.16v-145.101c8.858 0.717 17.766 0.973 26.982 0.973 8.090 0 16.282-0.256 24.474-0.973v52.941l95.846 92.16v-165.837c19.969-7.49 36.588-15.175 52.558-23.899l-2.126 1.063c27.221-15.24 50.73-32.468 71.903-52.173l-0.223 0.205c21.769-20.161 41.084-42.419 57.803-66.608l0.872-1.334c16.209-23.411 30.67-50.169 42.074-78.486l0.985-2.768c10.754-26.358 19.373-57.181 24.417-89.191l0.312-2.406-94.413-97.741c0.001 0.348 0.002 0.759 0.002 1.17 0 61.171-13.977 119.078-38.912 170.7l1.022-2.347c-12.533 25.892-26.971 48.207-43.764 68.501l0.449-0.559c-16.455 19.975-34.964 37.346-55.456 52.142l-0.864 0.594c-5.12 3.635-10.752 7.322-16.589 10.701v-202.189l-95.846-103.322v339.046c-8.083 1.011-17.438 1.587-26.928 1.587-0.019 0-0.038 0-0.057 0h0.003c-8.64-0.012-17.133-0.588-25.459-1.694l0.986 0.107v-235.52l-95.846-103.322v311.091c-28.861-15.149-53.544-33.854-74.704-55.96l-0.099-0.104c-50.272-52.686-81.209-124.204-81.209-202.948 0-0.651 0.002-1.302 0.006-1.953l-0.001 0.1c-0.001-0.337-0.002-0.735-0.002-1.133 0-27.069 3.834-53.242 10.988-78.007l-0.49 1.981c7.561-26.37 17.631-49.363 30.292-70.633l-0.75 1.36c13.361-22.327 28.614-41.604 46.033-58.68l0.047-0.046c17.455-17.179 37.038-32.28 58.296-44.851l1.403-0.768c20.085-11.865 43.291-21.98 67.756-29.148l2.183-0.548c16.962-4.783 36.806-8.242 57.208-9.674l0.955-0.054h343.859l-93.901-97.741h-644.301l93.901 97.741h63.078c-5.53 4.762-10.957 9.728-16.128 14.797-23.143 22.736-43.376 48.312-60.166 76.196l-0.966 1.73c-33.52 55.451-53.353 122.432-53.353 194.045 0 0.523 0.001 1.046 0.003 1.569v-0.081c-0.001 0.297-0.001 0.648-0.001 1 0 36.641 4.82 72.157 13.861 105.947l-0.651-2.858c17.884 67.601 51.28 125.873 96.249 173.006l-0.147-0.155c21.959 23.069 46.608 43.257 73.529 60.156l1.581 0.926c18.732 11.68 40.345 22.306 63.030 30.725l2.506 0.815z" />
<glyph unicode="&#xe920;" glyph-name="ui_more" data-tags="ui_more" d="M166.4 529.067c-63.623 0-115.2-51.577-115.2-115.2s51.577-115.2 115.2-115.2c63.623 0 115.2 51.577 115.2 115.2v0c0 63.623-51.577 115.2-115.2 115.2v0zM512 529.067c-63.623 0-115.2-51.577-115.2-115.2s51.577-115.2 115.2-115.2c63.623 0 115.2 51.577 115.2 115.2v0c0 63.623-51.577 115.2-115.2 115.2v0zM857.6 529.067c-63.623 0-115.2-51.577-115.2-115.2s51.577-115.2 115.2-115.2c63.623 0 115.2 51.577 115.2 115.2v0c0 63.623-51.577 115.2-115.2 115.2v0z" />
<glyph unicode="&#xe921;" glyph-name="ui_password" data-tags="ui_password" d="M490.342 859.768c-134.721-0.806-243.622-110.205-243.622-245.039 0-0.866 0.004-1.73 0.013-2.593l-0.001 0.132v-41.267c-44.935-0.405-81.205-36.925-81.205-81.917 0-0.181 0.001-0.362 0.002-0.543v0.028-412.467c-0.001-0.168-0.002-0.367-0.002-0.566 0-44.992 36.27-81.512 81.167-81.917h487.155c44.935 0.405 81.205 36.925 81.205 81.917 0 0.199-0.001 0.398-0.002 0.597v-0.031 412.467c0.001 0.168 0.002 0.367 0.002 0.566 0 44.992-36.27 81.512-81.167 81.917h-0.038v41.216c0.008 0.732 0.012 1.597 0.012 2.462 0 134.798-108.843 244.174-243.437 245.038h-0.082zM490.342 777.285c0.644 0.009 1.405 0.015 2.167 0.015 88.535 0 160.307-71.772 160.307-160.307 0-1.644-0.025-3.281-0.074-4.913l0.006 0.239v-41.267h-324.813v41.216c-0.044 1.408-0.070 3.064-0.070 4.725 0 88.535 71.772 160.307 160.307 160.307 0.763 0 1.524-0.005 2.284-0.016l-0.115 0.001zM490.342 364.817c0.381 0.006 0.83 0.010 1.28 0.010 45.554 0 82.483-36.929 82.483-82.483s-36.929-82.483-82.483-82.483c-45.551 0-82.478 36.923-82.483 82.473v0.001c-0.001 0.168-0.002 0.367-0.002 0.566 0 44.992 36.27 81.512 81.167 81.917h0.038z" />
<glyph unicode="&#xe922;" glyph-name="ui_phone" data-tags="ui_phone" d="M704 280.747l-130.048-129.536c-74.709 39.324-138.804 86.955-194.533 142.923l-0.027 0.027c-55.996 55.756-103.626 119.851-140.885 190.279l-2.065 4.281 129.638 129.946-32.666 268.8h-282.214v-51.2c0.686-240.329 97.651-457.878 254.334-616.217l-0.075 0.076c158.263-156.608 375.812-253.574 616.008-254.259h51.333v282.214z" />
<glyph unicode="&#xe923;" glyph-name="ui_search" data-tags="ui_search" d="M437.606 239.941c-144.213 0-261.12 116.907-261.12 261.12s116.907 261.12 261.12 261.12c144.213 0 261.12-116.907 261.12-261.12v0c-0.175-144.142-116.978-260.945-261.103-261.12h-0.017zM751.155 276.088c45.536 62.744 72.842 141.291 72.842 226.217 0 214.113-173.573 387.686-387.686 387.686s-387.686-173.573-387.686-387.686c0-214.113 173.573-387.686 387.686-387.686 84.925 0 163.473 27.307 227.342 73.619l-1.125-0.777 221.645-221.594 88.627 88.627z" />
<glyph unicode="&#xe924;" glyph-name="ui_user" data-tags="ui_user" d="M742.963 657.067c0-127.246-103.406-230.4-230.963-230.4s-230.963 103.154-230.963 230.4c0 127.246 103.406 230.4 230.963 230.4s230.963-103.154 230.963-230.4zM921.344 168.568c0.037-0.497 0.057-1.077 0.057-1.662 0-6.056-2.232-11.591-5.919-15.826l0.025 0.029c-98.217-113.713-242.598-185.245-403.686-185.245s-305.469 71.532-403.112 184.564l-0.575 0.68c-3.659 4.212-5.89 9.751-5.89 15.811 0 0.562 0.019 1.12 0.057 1.672l-0.004-0.075c8.544 106.023 96.69 188.826 204.176 188.826 0.093 0 0.187 0 0.28 0h410.148c0.080 0 0.175 0 0.27 0 107.468 0 195.602-82.776 204.125-188.048l0.047-0.727z" />
<glyph unicode="&#xe925;" glyph-name="ui_whishlist_added" data-tags="ui_whishlist_added" d="M719.36 836.267c-82.659-0.413-156.682-37.034-207.079-94.801l-0.281-0.328c-50.678 58.096-124.701 94.717-207.287 95.129h-0.073c-0.473 0.003-1.032 0.005-1.592 0.005-138.556 0-250.98-111.888-251.848-250.24v-0.082c0-250.317 460.8-568.883 460.8-568.883s460.8 318.566 460.8 568.883c-0.868 138.435-113.292 250.322-251.848 250.322-0.56 0-1.119-0.002-1.678-0.005h0.086z" />
<glyph unicode="&#xe926;" glyph-name="ui_whishlist" data-tags="ui_whishlist" d="M719.36 836.267c-82.659-0.413-156.682-37.034-207.079-94.801l-0.281-0.328c-50.678 58.096-124.701 94.717-207.287 95.129h-0.073c-0.473 0.003-1.032 0.005-1.592 0.005-138.556 0-250.98-111.888-251.848-250.24v-0.082c0-250.317 460.8-568.883 460.8-568.883s460.8 318.566 460.8 568.883c-0.868 138.435-113.292 250.322-251.848 250.322-0.56 0-1.119-0.002-1.678-0.005h0.086zM512 130.014c-160.512 121.651-368.64 323.686-368.64 455.68 0.522 88.224 72.161 159.541 160.458 159.541 0.289 0 0.578-0.001 0.866-0.002h-0.044c110.694 0 207.36-132.301 207.36-132.301s98.611 132.301 207.36 132.301c0.245 0.001 0.534 0.002 0.824 0.002 88.207 0 159.79-71.172 160.456-159.222v-0.064c0-132.25-208.128-334.285-368.64-455.936z" />
<glyph unicode="&#xe927;" glyph-name="youtube" data-tags="youtube" d="M956.877 635c-11.785 46.646-51.021 81.492-99.135 86.587l-0.5 0.043c-86.034 8.126-186.030 12.759-287.108 12.759-20.442 0-40.84-0.19-61.192-0.567l3.058 0.045c-17.406 0.337-37.934 0.529-58.507 0.529-100.909 0-200.739-4.617-299.292-13.651l12.66 0.937c-48.548-5.214-87.702-40.064-99.261-85.89l-0.169-0.792c-10.739-52.284-16.886-112.375-16.886-173.901 0-12.109 0.238-24.162 0.71-36.156l-0.054 1.724c-0.435-10.473-0.682-22.763-0.682-35.111 0-61.283 6.101-121.141 17.728-178.999l-0.969 5.778c11.765-46.64 50.985-81.487 99.084-86.587l0.5-0.043c86.002-8.126 185.965-12.759 287.011-12.759 20.438 0 40.831 0.19 61.179 0.567l-3.050-0.045c17.43-0.338 37.985-0.531 58.586-0.531 100.863 0 200.648 4.618 299.155 13.653l-12.653-0.937c48.614 5.138 87.85 39.984 99.465 85.838l0.17 0.793c10.66 52.073 16.762 111.923 16.762 173.198 0 12.375-0.249 24.692-0.742 36.945l0.056-1.76c0.451 10.665 0.708 23.18 0.708 35.755 0 61.052-6.054 120.69-17.594 178.347l0.963-5.769zM393.062 289.861v291.482l293.018-146.176z" />
<glyph unicode="&#xe928;" d="M153.6 785.067h716.8c56.554 0 102.4-45.846 102.4-102.4v-532.48c0-56.554-45.846-102.4-102.4-102.4h-716.8c-56.554 0-102.4 45.846-102.4 102.4v532.48c0 56.554 45.846 102.4 102.4 102.4z" />
<glyph unicode="&#xe929;" d="M557.363 496.965c-8.904-0.115-16.078-7.36-16.078-16.28 0-0.054 0-0.109 0.001-0.163v0.008-197.478c0-8.879 7.198-16.077 16.077-16.077s16.077 7.198 16.077 16.077v0 197.478c0 0.046 0.001 0.1 0.001 0.155 0 8.92-7.174 16.165-16.067 16.28h-0.011z" />
<glyph unicode="&#xe92a;" d="M665.958 430.865h-48.179c-8.879 0-16.077-7.198-16.077-16.077s7.198-16.077 16.077-16.077h48.179c8.879 0 16.077 7.198 16.077 16.077s-7.198 16.077-16.077 16.077v0z" />
<glyph unicode="&#xe92b;" d="M665.958 364.766h-48.179c-8.879 0-16.077-7.198-16.077-16.077s7.198-16.077 16.077-16.077h48.179c8.879 0 16.077 7.198 16.077 16.077s-7.198 16.077-16.077 16.077v0z" />
<glyph unicode="&#xe92c;" d="M291.226 413.406c-1.127 0.284-2.421 0.447-3.753 0.447-6.244 0-11.651-3.582-14.278-8.803l-0.042-0.092-16.077-32.154c-1.037-2.063-1.644-4.496-1.644-7.071 0-3.063 0.859-5.925 2.35-8.359l-0.040 0.070c2.893-4.592 7.927-7.605 13.667-7.629h16.081c8.879 0 16.077 7.198 16.077 16.077v0 32.154c-0.094 7.453-5.278 13.669-12.23 15.338l-0.109 0.022z" />
<glyph unicode="&#xe92d;" d="M707.686 393.131l-32.154 32.154c-2.909 2.908-6.928 4.707-11.366 4.707-8.878 0-16.075-7.196-16.077-16.073v0-64.256c0.004-6.659 4.055-12.371 9.827-14.808l0.106-0.040c1.799-0.777 3.893-1.229 6.093-1.229 0.018 0 0.036 0 0.054 0h-0.003c4.439 0.001 8.458 1.801 11.366 4.71l32.154 32.154c2.893 2.907 4.682 6.915 4.682 11.341s-1.789 8.434-4.682 11.341l0.001-0.001z" />
<glyph unicode="&#xe92e;" d="M808.499 381.765l68.608 88.218c2.223 2.887 3.563 6.555 3.563 10.535 0 2.524-0.539 4.922-1.507 7.086l0.044-0.11c-2.338 5.53-7.671 9.362-13.913 9.472h-76.814c-4.291-0.040-8.144-1.881-10.845-4.803l-0.009-0.010-35.226-37.734-35.226 37.734c-2.711 2.932-6.564 4.773-10.847 4.813h-200.301c-5.656-0.121-10.548-3.281-13.118-7.909l-0.040-0.078-32.922-58.778-32.922 58.573c-2.61 4.706-7.502 7.866-13.142 7.987h-153.003c-6.098-0.128-11.311-3.791-13.682-9.017l-0.039-0.096-92.16-197.478c-1.026-2.153-1.625-4.678-1.625-7.343 0-3.175 0.85-6.152 2.335-8.715l-0.045 0.084c2.649-4.61 7.508-7.687 13.094-7.782h76.762c6.088 0.118 11.297 3.761 13.682 8.967l0.039 0.096 11.11 23.808h5.888v-16.435c-0.005-0.155-0.009-0.338-0.009-0.522 0-8.599 6.816-15.606 15.341-15.913l0.028-0.001h122.88c7.61 0.211 13.849 5.817 15.041 13.119l0.012 0.090 1.946-4.096c2.424-5.302 7.634-8.944 13.706-9.062h30.735c6.088 0.118 11.297 3.761 13.682 8.967l0.039 0.096 1.946 4.096c1.204-7.392 7.443-12.998 15.031-13.209h199.702c4.292 0.033 8.147 1.876 10.845 4.802l0.009 0.010 35.226 37.734 35.226-37.734c2.711-2.932 6.564-4.773 10.847-4.813h76.807c6.255 0.11 11.589 3.942 13.889 9.371l0.038 0.101c0.925 2.054 1.463 4.452 1.463 6.976 0 3.98-1.34 7.647-3.593 10.576l0.030-0.041zM794.88 299.486l-41.574 44.544c-2.69 2.962-6.556 4.814-10.854 4.814s-8.165-1.852-10.844-4.802l-0.011-0.012-41.574-44.544h-178.022v49.357c0.003 0.113 0.004 0.245 0.004 0.379 0 7.389-4.922 13.628-11.665 15.618l-0.115 0.029c-1.059 0.267-2.274 0.42-3.525 0.42-6.142 0-11.422-3.691-13.743-8.977l-0.038-0.096-26.47-56.883h-11.776l-26.47 56.73c-2.375 5.379-7.662 9.064-13.81 9.064-1.24 0-2.445-0.15-3.599-0.433l0.103 0.021c-6.885-2.002-11.831-8.254-11.831-15.662 0-0.128 0.001-0.256 0.004-0.383v0.019-49.357h-92.109v16.435c0.005 0.155 0.009 0.338 0.009 0.522 0 8.599-6.816 15.606-15.341 15.913l-0.028 0.001h-30.72c-6.108-0.098-11.341-3.746-13.733-8.967l-0.039-0.096-11.11-23.808h-42.445l76.8 164.557h67.328v-115.2c0-8.483 6.877-15.36 15.36-15.36s15.36 6.877 15.36 15.36v115.2h36.762l41.626-74.24c2.736-4.486 7.603-7.436 13.158-7.436s10.423 2.95 13.12 7.369l0.038 0.068 41.574 74.291h185.242l41.574-44.544c2.69-2.962 6.556-4.814 10.854-4.814s8.165 1.852 10.844 4.802l0.011 0.012 41.574 44.544h37.683l-55.808-71.68c-2.229-2.89-3.572-6.561-3.572-10.547s1.343-7.658 3.602-10.588l-0.030 0.041 55.808-71.68z" />
<glyph unicode="&#xe92f;" glyph-name="calendar" data-tags="calendar" d="M238.95 887.467v-92.16h-45.517c-50.376-0.463-91.034-41.408-91.034-91.849 0-0.109 0-0.219 0.001-0.328v0.017-645.12c0-0.092-0.001-0.202-0.001-0.311 0-50.441 40.659-91.386 90.99-91.849h637.177c50.376 0.463 91.034 41.408 91.034 91.849 0 0.109 0 0.219-0.001 0.328v-0.017 645.12c0 0.092 0.001 0.202 0.001 0.311 0 50.441-40.659 91.386-90.99 91.849h-45.561v92.16h-90.982v-92.16h-364.134v92.16zM193.434 564.907h637.133v-506.88h-637.133z" />
<glyph unicode="&#xe930;" glyph-name="category" data-tags="category" d="M102.4 887.467c-28.277 0-51.2-22.923-51.2-51.2s22.923-51.2 51.2-51.2c28.277 0 51.2 22.923 51.2 51.2v0c0 28.277-22.923 51.2-51.2 51.2v0zM256 887.467v-102.4h716.8v102.4zM102.4 682.667c-28.277 0-51.2-22.923-51.2-51.2s22.923-51.2 51.2-51.2c28.277 0 51.2 22.923 51.2 51.2v0c0 28.277-22.923 51.2-51.2 51.2v0zM256 682.667v-102.4h614.4v102.4zM102.4 477.867c-28.277 0-51.2-22.923-51.2-51.2s22.923-51.2 51.2-51.2c28.277 0 51.2 22.923 51.2 51.2v0c0 28.277-22.923 51.2-51.2 51.2v0zM256 477.867v-102.4h512v102.4zM102.4 273.067c-28.277 0-51.2-22.923-51.2-51.2s22.923-51.2 51.2-51.2c28.277 0 51.2 22.923 51.2 51.2v0c0 28.277-22.923 51.2-51.2 51.2v0zM256 273.067v-102.4h409.6v102.4zM102.4 68.267c-28.277 0-51.2-22.923-51.2-51.2s22.923-51.2 51.2-51.2c28.277 0 51.2 22.923 51.2 51.2v0c0 28.277-22.923 51.2-51.2 51.2v0zM256 68.267v-102.4h307.2v102.4z" />
<glyph unicode="&#xe931;" glyph-name="down" data-tags="down" d="M265.523 616.363l-72.192-72.192 307.2-307.2 307.2 307.2-72.192 72.192-235.008-234.496z" />
<glyph unicode="&#xe932;" glyph-name="gift" data-tags="gift" d="M373.76 887.467c-76.886-2.489-138.268-65.414-138.268-142.675 0-0.997 0.010-1.991 0.031-2.983l-0.002 0.148c0.191-17.436 3.346-34.076 8.983-49.522l-0.331 1.036h-192.973v-194.048h46.080v-533.555h368.64v533.555h92.16v-533.555h368.64v533.555h46.080v194.048h-192.973c5.307 14.41 8.462 31.050 8.652 48.402l0.001 0.085c0.018 0.844 0.028 1.838 0.028 2.835 0 77.262-61.382 140.187-138.040 142.67l-0.228 0.006c-35.933-0.361-68.408-14.871-92.18-38.215l0.020 0.020v1.024l-5.376-5.683-40.704-42.803-40.704 42.803-5.376 5.734v-1.024c-23.758 23.305-56.234 37.797-92.093 38.143l-0.067 0.001zM373.76 790.443c25.533-0.297 46.117-21.065 46.117-46.64 0-0.649-0.013-1.295-0.040-1.938l0.003 0.092c0-25.449-20.631-46.080-46.080-46.080s-46.080 20.631-46.080 46.080v0c-0.023 0.551-0.037 1.197-0.037 1.846 0 25.575 20.584 46.343 46.088 46.64h0.028zM650.24 790.443c25.533-0.297 46.117-21.065 46.117-46.64 0-0.649-0.013-1.295-0.040-1.938l0.003 0.092c0-25.449-20.631-46.080-46.080-46.080s-46.080 20.631-46.080 46.080v0c-0.023 0.551-0.037 1.197-0.037 1.846 0 25.575 20.584 46.343 46.088 46.64h0.028z" />
<glyph unicode="&#xe933;" glyph-name="img" data-tags="img" d="M880.64 785.067h-737.28c-50.899 0-92.16-41.261-92.16-92.16v0-552.96c0-50.899 41.261-92.16 92.16-92.16v0h737.28c50.899 0 92.16 41.261 92.16 92.16v0 552.96c0 50.899-41.261 92.16-92.16 92.16v0zM419.84 600.747c25.449 0 46.080-20.631 46.080-46.080s-20.631-46.080-46.080-46.080c-25.449 0-46.080 20.631-46.080 46.080v0c0 25.449 20.631 46.080 46.080 46.080v0zM788.48 186.027h-551.936c-12.715 0.012-23.018 10.323-23.018 23.040 0 5.349 1.823 10.272 4.881 14.182l-0.038-0.051 114.739 147.558c4.256 5.405 10.8 8.845 18.147 8.845 7.093 0 13.437-3.205 17.663-8.246l0.029-0.036 96.973-116.634 142.746 183.962c4.255 5.435 10.817 8.895 18.187 8.895 7.506 0 14.173-3.589 18.38-9.144l0.042-0.058 161.638-215.45c2.877-3.803 4.608-8.611 4.608-13.824 0-12.725-10.315-23.040-23.040-23.040v0z" />
<glyph unicode="&#xe934;" glyph-name="location-map" data-tags="location map" d="M512 887.467c-149.902-0.19-282.979-72.054-366.825-183.155l-0.842-1.165h-0.973v-1.28c-56.763-75.661-90.897-171.137-90.897-274.585 0-254.153 206.032-460.186 460.186-460.186s460.186 206.032 460.186 460.186c0 254.153-206.032 460.186-460.186 460.186-0.228 0-0.456 0-0.684 0h0.035zM650.24 768.376c136.172-56.22 230.257-187.963 230.257-341.681 0-96.051-36.735-183.523-96.922-249.131l0.245 0.271c-11.998 37.631-46.609 64.425-87.49 64.512h-46.090v138.24c0 25.449-20.631 46.080-46.080 46.080v0h-230.4v92.16h46.080c25.449 0 46.080 20.631 46.080 46.080v0 92.16h92.16c50.899 0 92.16 41.261 92.16 92.16v0zM152.883 509.304l220.877-220.877v-46.080c0-50.899 41.261-92.16 92.16-92.16v0-88.986c-182.727 23.229-322.577 177.729-322.577 364.892 0 29.512 3.477 58.212 10.044 85.713l-0.504-2.503z" />
<glyph unicode="&#xe935;" glyph-name="mastercard" data-tags="mastercard" d="M880.64 785.067h-737.28c-50.899 0-92.16-41.261-92.16-92.16v0-552.96c0-50.899 41.261-92.16 92.16-92.16v0h737.28c50.899 0 92.16 41.261 92.16 92.16v0 552.96c0 50.899-41.261 92.16-92.16 92.16v0zM650.24 232.107c-55.166 0.141-104.577 24.664-138.044 63.359l-0.196 0.232c-33.982-39.049-83.764-63.59-139.278-63.59-101.797 0-184.32 82.523-184.32 184.32s82.523 184.32 184.32 184.32c55.514 0 105.295-24.542 139.088-63.367l0.19-0.223c33.908 38.684 83.419 62.976 138.603 62.976 101.627 0 184.013-82.385 184.013-184.013s-82.385-184.013-184.013-184.013c-0.127 0-0.255 0-0.382 0h0.020z" />
<glyph unicode="&#xe936;" glyph-name="minus" data-tags="minus" d="M449.178 489.541h-397.978v-125.696h921.6v125.696h-523.622z" />
<glyph unicode="&#xe937;" glyph-name="remove" data-tags="remove" d="M420.966 887.467l-45.517-46.080h-273.050v-92.16h819.2v92.16h-273.050l-45.517 46.080zM164.557 657.067l69.478-611.174c5.955-45.123 43.996-79.641 90.175-80.025h375.438c46.352 0.402 84.479 35.095 90.268 79.925l0.048 0.459 69.478 610.816z" />
<glyph unicode="&#xe938;" glyph-name="up" data-tags="up" d="M758.477 236.971l72.192 72.192-307.2 307.2-307.2-307.2 72.192-72.192 235.008 234.496z" />
<glyph unicode="&#xe939;" glyph-name="visa" data-tags="visa" d="M143.36 785.067c-50.899 0-92.16-41.261-92.16-92.16v0-552.96c0-50.899 41.261-92.16 92.16-92.16v0h737.28c50.899 0 92.16 41.261 92.16 92.16v0 552.96c0 50.899-41.261 92.16-92.16 92.16v0zM622.080 554.667c22.63-1.331 43.718-6.457 63.129-14.751l-1.228 0.467-14.285-57.395c-13.103 10.407-29.415 17.314-47.241 19.068l-0.375 0.030c-33.331 0-42.854-14.336-42.854-28.621 0-33.331 95.232-37.99 95.232-104.653-6.701-51.345-50.17-90.586-102.805-90.586-2.362 0-4.705 0.079-7.027 0.234l0.315-0.017c-2.25-0.122-4.883-0.191-7.533-0.191-23.202 0-45.161 5.322-64.723 14.811l0.883-0.387 9.523 57.139c19.563-8.998 42.444-14.257 66.55-14.285h0.010c38.042 0 42.854 14.336 42.854 23.859 0 42.854-95.232 28.57-95.232 114.227-0.154 43.008 33.382 81.050 104.806 81.050zM322.202 549.905h66.56l-99.942-266.598h-71.373l-52.378 214.221c40.614-27.999 71.881-66.935 89.843-112.566l0.576-1.662c0.642-8.739 2.336-16.858 4.965-24.544l-0.204 0.685zM783.923 549.905h71.117l52.582-266.598h-57.139l-9.523 38.093h-85.709l-14.234-38.093h-66.56zM417.331 545.246h71.373l-42.854-266.598h-66.56zM84.173 545.246h104.704c0.273 0.007 0.594 0.010 0.916 0.010 16.383 0 30.52-9.619 37.071-23.517l0.106-0.25 23.91-119.091c-28.723 99.942-166.758 142.746-166.758 142.746zM807.68 469.112l-38.093-99.994h57.037z" />
<glyph unicode="&#xe93a;" glyph-name="wallet" data-tags="wallet" d="M204.8 887.467c-84.656-0.434-153.166-68.944-153.6-153.558v-665.642c0-56.554 45.846-102.4 102.4-102.4v0h716.8c56.554 0 102.4 45.846 102.4 102.4v0 512c0 56.554-45.846 102.4-102.4 102.4v0h-665.6c-28.277 0-51.2 22.923-51.2 51.2s22.923 51.2 51.2 51.2v0h716.8v102.4zM819.2 375.467c28.277 0 51.2-22.923 51.2-51.2s-22.923-51.2-51.2-51.2c-28.277 0-51.2 22.923-51.2 51.2v0c0 28.277 22.923 51.2 51.2 51.2v0z" />
<glyph unicode="&#xe93b;" glyph-name="warning" data-tags="warning" d="M970.547 134.315l-393.779 658.79c-13.321 22.147-37.226 36.735-64.538 36.735s-51.217-14.588-64.349-36.396l-0.189-0.338-393.83-658.79c-6.741-11.139-10.73-24.596-10.73-38.985 0-13.706 3.619-26.566 9.954-37.678l-0.197 0.375c13.117-23.090 37.533-38.42 65.532-38.451h787.614c28 0.043 52.411 15.368 65.341 38.080l0.195 0.371c6.123 10.726 9.732 23.571 9.732 37.259 0 14.407-3.999 27.88-10.948 39.37l0.191-0.341zM556.954 154.795h-89.498v89.856h89.549zM556.954 334.865h-89.498v225.28h89.549z" />
<glyph unicode="&#xe93c;" glyph-name="youtube1" data-tags="youtube" d="M269.414 887.467c-15.376-0.12-27.794-12.613-27.794-28.006 0-2.661 0.371-5.235 1.064-7.673l-0.048 0.197 57.702-210.739v-88.576c0-16.132 13.078-29.21 29.21-29.21s29.21 13.078 29.21 29.21v0 88.576l58.214 210.688c1.026 2.778 1.62 5.987 1.62 9.334 0 15.298-12.401 27.699-27.699 27.699-13.803 0-25.249-10.097-27.353-23.308l-0.021-0.158-19.661-90.112q-10.24-49.050-13.261-69.837h-1.997q-4.301 29.030-13.21 70.298l-18.944 89.498c-2.659 12.692-13.744 22.091-27.031 22.118h-0.003zM494.694 794.488c-1.223 0.062-2.655 0.098-4.095 0.098-16.132 0-31.223-4.451-44.114-12.193l0.389 0.216c-12.834-9.12-22.308-22.232-26.659-37.503l-0.119-0.487c-5.434-18.538-8.56-39.834-8.56-61.86 0-2.517 0.041-5.024 0.122-7.522l-0.009 0.364v-38.707c-0.063-2.098-0.099-4.566-0.099-7.042 0-21.704 2.763-42.762 7.956-62.842l-0.381 1.738c3.91-15.603 12.938-28.676 25.16-37.657l0.184-0.129c12.636-7.705 27.92-12.267 44.27-12.267 1.681 0 3.351 0.048 5.008 0.143l-0.229-0.011c1.322-0.073 2.869-0.115 4.426-0.115 16.19 0 31.33 4.497 44.238 12.31l-0.382-0.215c12.45 9.106 21.548 22.147 25.497 37.268l0.103 0.466c5.101 18.481 8.032 39.702 8.032 61.607 0 2.39-0.035 4.771-0.104 7.144l0.008-0.348v38.656c0.067 2.107 0.106 4.584 0.106 7.071 0 21.945-2.991 43.19-8.589 63.352l0.394-1.661c-4.205 15.606-13.261 28.683-25.424 37.863l-0.176 0.128c-12.139 7.682-26.915 12.241-42.756 12.241-1.457 0-2.906-0.039-4.344-0.115l0.201 0.008zM635.648 789.368c-16.357-0.058-29.594-13.331-29.594-29.696 0-0.072 0-0.144 0.001-0.216v0.011-168.96c-0.168-2.106-0.263-4.561-0.263-7.037 0-17.397 4.718-33.692 12.945-47.676l-0.24 0.441c8.162-10.669 20.9-17.482 35.229-17.482 1.17 0 2.33 0.045 3.477 0.135l-0.152-0.009c0.247-0.004 0.539-0.006 0.831-0.006 24.919 0 46.326 15.035 55.645 36.529l0.151 0.392h1.331l1.792-11.366c1.794-12.163 12.16-21.393 24.682-21.393 13.771 0 24.934 11.164 24.934 24.934 0 0.141-0.001 0.282-0.004 0.422v-0.021 211.098c0 16.33-13.238 29.568-29.568 29.568s-29.568-13.238-29.568-29.568v0-181.606c-2.298-4.998-5.797-9.106-10.139-12.070l-0.101-0.065c-4.132-2.952-9.279-4.731-14.841-4.762h-0.007c-0.252-0.017-0.547-0.027-0.844-0.027-5.287 0-9.857 3.070-12.024 7.525l-0.035 0.079c-2.517 6.397-3.976 13.805-3.976 21.554 0 1.424 0.049 2.836 0.146 4.235l-0.010-0.189v165.325c0 0.030 0 0.066 0 0.102 0 16.401-13.295 29.696-29.696 29.696 0 0 0 0 0 0v0zM493.414 753.528c0.082 0.001 0.178 0.002 0.275 0.002 8.183 0 15.070-5.548 17.105-13.088l0.028-0.124c3.32-10.945 5.231-23.525 5.231-36.55 0-1.893-0.040-3.777-0.12-5.65l0.009 0.267v-83.149c0.079-1.709 0.124-3.712 0.124-5.725 0-13.121-1.916-25.794-5.483-37.756l0.239 0.934c-2.116-7.586-8.965-13.058-17.092-13.058-0.093 0-0.186 0.001-0.279 0.002h0.014c-0.112-0.003-0.243-0.004-0.375-0.004-8.050 0-14.815 5.496-16.75 12.94l-0.027 0.12c-3.148 10.873-4.958 23.362-4.958 36.275 0 2.206 0.053 4.4 0.157 6.58l-0.012-0.308v82.79c-0.071 1.61-0.112 3.498-0.112 5.395 0 13.021 1.912 25.596 5.469 37.46l-0.237-0.922c1.908 7.689 8.745 13.301 16.895 13.312h0.001zM193.434 472.747c-50.376-0.463-91.034-41.408-91.034-91.849 0-0.109 0-0.219 0.001-0.328v0.017-322.56c0-0.092-0.001-0.202-0.001-0.311 0-50.441 40.659-91.386 90.99-91.849h637.177c50.376 0.463 91.034 41.408 91.034 91.849 0 0.109 0 0.219-0.001 0.328v-0.017 322.56c0 0.092 0.001 0.202 0.001 0.311 0 50.441-40.659 91.386-90.99 91.849h-0.044zM538.214 380.587c13.315-0.116 24.064-10.937 24.064-24.268 0-0.036 0-0.073 0-0.109v0.006-93.952h0.358c4.362 8.445 10.637 15.36 18.28 20.356l0.203 0.124c7.185 4.888 16.049 7.812 25.594 7.834h0.006c0.67 0.041 1.454 0.065 2.243 0.065 9.807 0 18.766-3.633 25.604-9.626l-0.045 0.038c7.576-8.247 12.815-18.753 14.602-30.396l0.041-0.324c2.885-15.653 4.535-33.665 4.535-52.063 0-2.451-0.029-4.896-0.088-7.333l0.007 0.362v-35.533c0.188-3.006 0.295-6.519 0.295-10.058 0-22.954-4.509-44.856-12.69-64.866l0.414 1.145c-6.191-14.045-19.991-23.672-36.040-23.672-0.416 0-0.83 0.006-1.243 0.019l0.060-0.001c-0.158-0.002-0.345-0.003-0.532-0.003-9.21 0-17.852 2.432-25.32 6.689l0.252-0.132c-7.498 4.192-13.459 10.351-17.296 17.784l-0.112 0.238h-1.075l-0.819-3.328c-2.388-10.375-11.545-17.995-22.481-17.995-12.725 0-23.040 10.315-23.040 23.040 0 0.152 0.001 0.304 0.004 0.456v-0.023 271.155c-0.001 0.061-0.001 0.133-0.001 0.205 0 13.347 10.82 24.166 24.166 24.166 0.018 0 0.037 0 0.055 0h-0.003zM235.622 369.169h107.827c10.284-1.189 18.194-9.847 18.194-20.352s-7.91-19.163-18.099-20.343l-0.095-0.009h-29.491v-242.125c0-13.502-10.946-24.448-24.448-24.448s-24.448 10.946-24.448 24.448v242.125h-29.542c-10.284 1.189-18.194 9.847-18.194 20.352s7.91 19.163 18.099 20.343l0.095 0.009zM743.885 290.68c1.28 0.085 2.775 0.133 4.281 0.133 12.986 0 25.134-3.589 35.506-9.83l-0.311 0.174c9.561-7.207 16.472-17.484 19.284-29.346l0.070-0.35c3.605-14.835 5.673-31.866 5.673-49.379 0-2.225-0.033-4.441-0.1-6.65l0.008 0.324v-13.056c0-0.001 0-0.003 0-0.004 0-13.976-11.2-25.337-25.115-25.595h-58.29v-11.418c-0.026-1.46-0.040-3.181-0.040-4.906 0-9.684 0.461-19.26 1.362-28.708l-0.093 1.204c0.283-5.902 2.155-11.314 5.192-15.885l-0.072 0.116c2.712-3.167 6.714-5.162 11.183-5.162 0.389 0 0.774 0.015 1.156 0.045l-0.051-0.003c0.431-0.043 0.931-0.067 1.437-0.067 6.129 0 11.419 3.589 13.884 8.781l0.040 0.093c1.312 2.963 2.331 6.409 2.889 10.007l0.030 0.233c1.849 10.153 10.624 17.749 21.174 17.749 0.422 0 0.842-0.012 1.258-0.036l-0.058 0.003c11.405-0.784 20.359-10.228 20.359-21.763 0-1.356-0.124-2.683-0.361-3.971l0.020 0.134c-1.666-11.753-6.779-22.088-14.268-30.194l0.034 0.038c-11.665-9.649-26.776-15.503-43.256-15.503-1.552 0-3.092 0.052-4.619 0.154l0.207-0.011c-1.72-0.186-3.715-0.293-5.734-0.293-18.913 0-35.648 9.322-45.862 23.622l-0.116 0.171c-9.567 18.308-15.18 39.989-15.18 62.98 0 3.368 0.12 6.707 0.357 10.014l-0.025-0.444v39.219c-0.232 2.996-0.365 6.488-0.365 10.012 0 23.353 5.819 45.347 16.085 64.612l-0.361-0.741c10.726 14.499 27.765 23.796 46.976 23.796 2.065 0 4.104-0.107 6.113-0.317l-0.251 0.021zM373.76 286.379c13.818-0.087 24.986-11.309 24.986-25.139 0-0.054 0-0.108-0.001-0.162v0.008-139.674c-0.069-0.991-0.108-2.147-0.108-3.313 0-6.503 1.223-12.72 3.452-18.434l-0.119 0.345c1.867-3.832 5.733-6.425 10.204-6.425 0.265 0 0.528 0.009 0.788 0.027l-0.035-0.002c4.673 0.036 8.986 1.547 12.505 4.089l-0.064-0.044c3.845 2.537 6.886 6.005 8.844 10.090l0.065 0.15v153.19c0 13.799 11.186 24.986 24.986 24.986s24.986-11.186 24.986-24.986v0-178.022c0-0.015 0-0.034 0-0.052 0-11.65-9.444-21.094-21.094-21.094-10.494 0-19.198 7.662-20.822 17.697l-0.016 0.121-1.536 9.472h-1.229c-8.010-18.458-26.077-31.135-47.104-31.135-0.252 0-0.503 0.002-0.754 0.005h0.038c-0.831-0.066-1.8-0.104-2.777-0.104-12.103 0-22.859 5.769-29.668 14.707l-0.067 0.091c-6.796 11.461-10.812 25.263-10.812 40.004 0 2.048 0.078 4.078 0.23 6.088l-0.016-0.267v142.49c0 0.015 0 0.033 0 0.051 0 13.905 11.243 25.183 25.134 25.241h0.006zM743.014 256.478c-0.328 0.027-0.711 0.042-1.097 0.042-4.258 0-8.084-1.85-10.718-4.79l-0.012-0.014c-2.927-4.332-4.793-9.599-5.116-15.279l-0.004-0.081c-0.809-8.313-1.271-17.971-1.271-27.737 0-1.769 0.015-3.534 0.045-5.296l-0.004 0.265v-16.128h36.557v16.128c0.021 1.26 0.032 2.748 0.032 4.238 0 10.049-0.532 19.973-1.571 29.746l0.105-1.216c-0.248 5.904-2.125 11.325-5.19 15.879l0.070-0.11c-2.623 2.735-6.308 4.435-10.389 4.435-0.543 0-1.078-0.030-1.605-0.089l0.065 0.006zM584.294 254.84c-5.24-0.099-9.944-2.317-13.305-5.83l-0.007-0.007c-4.109-4.016-7.146-9.111-8.654-14.828l-0.050-0.225v-127.539c2.010-3.705 4.92-6.697 8.444-8.749l0.106-0.057c3.255-1.868 7.156-2.97 11.315-2.97 0.018 0 0.036 0 0.054 0h-0.003c0.175-0.007 0.38-0.011 0.586-0.011 4.877 0 9.222 2.273 12.036 5.816l0.024 0.032c3.743 5.607 6.185 12.376 6.75 19.672l0.009 0.143c1.262 10.167 1.983 21.936 1.983 33.872 0 1.628-0.013 3.253-0.040 4.875l0.003-0.244v28.877c0.024 1.609 0.038 3.508 0.038 5.411 0 12.426-0.59 24.715-1.744 36.839l0.119-1.546c-0.401 7.566-2.496 14.562-5.91 20.726l0.125-0.246c-2.471 3.639-6.59 5.998-11.26 5.998-0.163 0-0.326-0.003-0.488-0.009l0.023 0.001z" />
</font>
</defs>
</svg>
